<svg width="62" height="61" fill="none" xmlns="http://www.w3.org/2000/svg"><path d="M16.32 44.947s14.75-1.992 21.046-8.184c6.297-6.191 8.318-20.707 8.318-20.707S30.93 18.048 24.637 24.24c-6.293 6.192-8.318 20.707-8.318 20.707zm11.504-17.578c2.642-2.599 7.701-4.447 12.041-5.598-1.166 4.264-3.051 9.277-5.683 11.857a4.54 4.54 0 01-6.358 0 4.37 4.37 0 010-6.259zM31.002 0C13.878 0 0 13.654 0 30.498 0 47.346 13.878 61 31.002 61 48.118 61 62 47.346 62 30.498 62 13.651 48.118 0 31.002 0zm-.004 54.643c-13.552 0-24.54-10.808-24.54-24.145 0-13.333 10.985-24.144 24.54-24.144 13.552 0 24.544 10.808 24.544 24.144 0 13.334-10.992 24.145-24.544 24.145z" fill="url(#paint0_linear_517_152)"/><defs><linearGradient id="paint0_linear_517_152" x1="0" y1="30.5" x2="62" y2="30.5" gradientUnits="userSpaceOnUse"><stop offset=".036" stop-color="#C3956A"/><stop offset="1" stop-color="#A24F03"/></linearGradient></defs></svg>