<svg width="63" height="62" fill="none" xmlns="http://www.w3.org/2000/svg"><path d="M31.502 0C14.128 0 0 13.908 0 31s14.128 31 31.502 31C48.868 62 63 48.092 63 31S48.868 0 31.502 0zm26.865 31c0 6.048-2.087 11.625-5.565 16.081-.984-.755-2.03-2.8-1.046-4.918.994-2.131 1.253-7.065 1.023-8.986-.216-1.919-1.23-6.54-3.983-6.585-2.75-.039-4.636-.933-6.27-4.143-3.39-6.678 6.362-7.96 2.973-11.654-.949-1.04-5.85 4.27-6.569-2.806-.046-.507.443-1.266 1.102-2.054C50.676 9.455 58.367 19.36 58.367 31zM27.81 4.821c-.643 1.234-2.339 1.734-3.37 2.661-2.244 1.999-3.208 1.721-4.416 3.64-1.217 1.917-5.141 4.678-5.141 6.067 0 1.388 1.982 3.022 2.973 2.706.99-.323 3.605-.304 5.141.226 1.539.536 12.842 1.072 9.24 10.475-1.142 2.99-6.146 2.487-7.478 7.437-.2.727-.892 3.83-.935 4.844-.082 1.57 1.129 7.485-.41 7.485-1.546 0-5.703-5.293-5.703-6.252 0-.959-1.076-4.32-1.076-7.2 0-2.878-4.98-2.833-4.98-6.66 0-3.448 2.7-5.166 2.093-6.822-.594-1.647-5.339-1.702-7.317-1.906 3.455-8.818 11.582-15.364 21.38-16.7zm-4.76 51.27c1.614-.84 1.778-1.925 3.241-1.98 1.674-.074 3.035-.642 4.922-1.053 1.673-.358 4.669-2.03 7.304-2.244 2.224-.177 6.611.113 7.792 2.225A26.977 26.977 0 0131.5 57.44a27.16 27.16 0 01-8.45-1.35z" fill="url(#paint0_linear_517_154)"/><defs><linearGradient id="paint0_linear_517_154" x1="0" y1="31" x2="63" y2="31" gradientUnits="userSpaceOnUse"><stop offset=".036" stop-color="#C3956A"/><stop offset="1" stop-color="#A24F03"/></linearGradient></defs></svg>