<svg width="61" height="64" fill="none" xmlns="http://www.w3.org/2000/svg"><path d="M60.686 57.926L56.281 44.8h-4.834l2.685 12.8H6.87l2.684-12.8H4.721L.312 57.926C-.806 61.267 1.176 64 4.721 64h51.56c3.545 0 5.527-2.733 4.405-6.074zM46.614 16c0-8.835-7.212-16-16.113-16-8.9 0-16.113 7.165-16.113 16 0 15.28 16.113 32 16.113 32s16.113-16.72 16.113-32zm-24.814.192c0-4.771 3.893-8.637 8.7-8.637 4.809 0 8.702 3.866 8.702 8.637 0 4.774-3.896 8.64-8.701 8.64-4.805 0-8.701-3.869-8.701-8.64z" fill="url(#paint0_linear_517_156)"/><defs><linearGradient id="paint0_linear_517_156" x1="0" y1="32" x2="61" y2="32" gradientUnits="userSpaceOnUse"><stop offset=".036" stop-color="#C3956A"/><stop offset="1" stop-color="#A24F03"/></linearGradient></defs></svg>