<svg width="65" height="58" fill="none" xmlns="http://www.w3.org/2000/svg"><path d="M64.347 13.42l-7.719-5.896c-.439-.3-1.053-.567-1.693-.764-.644-.196-1.31-.316-1.843-.316H30.875l2.603 16.112h19.614c.533 0 1.2-.12 1.84-.316.64-.197 1.257-.467 1.693-.76l7.719-5.904c.438-.293.656-.683.656-1.076s-.218-.783-.653-1.08zM27.625 0h-3.25c-.897 0-1.625.722-1.625 1.611V12.89H11.908c-.54 0-1.202.12-1.843.319-.643.193-1.258.46-1.693.76L.653 19.865c-.439.293-.653.686-.653 1.08 0 .393.214.78.653 1.079l7.719 5.903c.435.293 1.05.564 1.693.757.644.194 1.303.316 1.843.316H22.75v27.389c0 .89.728 1.611 1.625 1.611h3.25c.897 0 1.625-.722 1.625-1.611V1.61c0-.889-.728-1.61-1.625-1.61z" fill="url(#paint0_linear_517_150)"/><defs><linearGradient id="paint0_linear_517_150" x1="0" y1="29" x2="65" y2="29" gradientUnits="userSpaceOnUse"><stop offset=".036" stop-color="#C3956A"/><stop offset="1" stop-color="#A24F03"/></linearGradient></defs></svg>